<?xml version='1.0' encoding='UTF-8'?>
<svg width="41mm" height="41mm" version="1.1" viewBox="0 0 41 41" xmlns="http://www.w3.org/2000/svg"><path d="M2,2H3V3H2zM3,2H4V3H3zM4,2H5V3H4zM5,2H6V3H5zM6,2H7V3H6zM7,2H8V3H7zM8,2H9V3H8zM10,2H11V3H10zM11,2H12V3H11zM15,2H16V3H15zM20,2H21V3H20zM21,2H22V3H21zM23,2H24V3H23zM24,2H25V3H24zM26,2H27V3H26zM27,2H28V3H27zM29,2H30V3H29zM30,2H31V3H30zM32,2H33V3H32zM33,2H34V3H33zM34,2H35V3H34zM35,2H36V3H35zM36,2H37V3H36zM37,2H38V3H37zM38,2H39V3H38zM2,3H3V4H2zM8,3H9V4H8zM11,3H12V4H11zM12,3H13V4H12zM14,3H15V4H14zM15,3H16V4H15zM16,3H17V4H16zM18,3H19V4H18zM19,3H20V4H19zM22,3H23V4H22zM28,3H29V4H28zM30,3H31V4H30zM32,3H33V4H32zM38,3H39V4H38zM2,4H3V5H2zM4,4H5V5H4zM5,4H6V5H5zM6,4H7V5H6zM8,4H9V5H8zM11,4H12V5H11zM14,4H15V5H14zM16,4H17V5H16zM17,4H18V5H17zM18,4H19V5H18zM19,4H20V5H19zM20,4H21V5H20zM21,4H22V5H21zM22,4H23V5H22zM23,4H24V5H23zM25,4H26V5H25zM28,4H29V5H28zM32,4H33V5H32zM34,4H35V5H34zM35,4H36V5H35zM36,4H37V5H36zM38,4H39V5H38zM2,5H3V6H2zM4,5H5V6H4zM5,5H6V6H5zM6,5H7V6H6zM8,5H9V6H8zM10,5H11V6H10zM11,5H12V6H11zM12,5H13V6H12zM14,5H15V6H14zM17,5H18V6H17zM20,5H21V6H20zM21,5H22V6H21zM22,5H23V6H22zM25,5H26V6H25zM27,5H28V6H27zM32,5H33V6H32zM34,5H35V6H34zM35,5H36V6H35zM36,5H37V6H36zM38,5H39V6H38zM2,6H3V7H2zM4,6H5V7H4zM5,6H6V7H5zM6,6H7V7H6zM8,6H9V7H8zM10,6H11V7H10zM11,6H12V7H11zM13,6H14V7H13zM15,6H16V7H15zM16,6H17V7H16zM17,6H18V7H17zM20,6H21V7H20zM23,6H24V7H23zM25,6H26V7H25zM27,6H28V7H27zM28,6H29V7H28zM29,6H30V7H29zM32,6H33V7H32zM34,6H35V7H34zM35,6H36V7H35zM36,6H37V7H36zM38,6H39V7H38zM2,7H3V8H2zM8,7H9V8H8zM10,7H11V8H10zM13,7H14V8H13zM15,7H16V8H15zM16,7H17V8H16zM20,7H21V8H20zM21,7H22V8H21zM23,7H24V8H23zM24,7H25V8H24zM26,7H27V8H26zM27,7H28V8H27zM28,7H29V8H28zM32,7H33V8H32zM38,7H39V8H38zM2,8H3V9H2zM3,8H4V9H3zM4,8H5V9H4zM5,8H6V9H5zM6,8H7V9H6zM7,8H8V9H7zM8,8H9V9H8zM10,8H11V9H10zM12,8H13V9H12zM14,8H15V9H14zM16,8H17V9H16zM18,8H19V9H18zM20,8H21V9H20zM22,8H23V9H22zM24,8H25V9H24zM26,8H27V9H26zM28,8H29V9H28zM30,8H31V9H30zM32,8H33V9H32zM33,8H34V9H33zM34,8H35V9H34zM35,8H36V9H35zM36,8H37V9H36zM37,8H38V9H37zM38,8H39V9H38zM10,9H11V10H10zM14,9H15V10H14zM15,9H16V10H15zM17,9H18V10H17zM19,9H20V10H19zM20,9H21V10H20zM22,9H23V10H22zM24,9H25V10H24zM26,9H27V10H26zM28,9H29V10H28zM30,9H31V10H30zM2,10H3V11H2zM6,10H7V11H6zM8,10H9V11H8zM9,10H10V11H9zM10,10H11V11H10zM13,10H14V11H13zM15,10H16V11H15zM17,10H18V11H17zM20,10H21V11H20zM24,10H25V11H24zM25,10H26V11H25zM26,10H27V11H26zM31,10H32V11H31zM32,10H33V11H32zM33,10H34V11H33zM34,10H35V11H34zM35,10H36V11H35zM38,10H39V11H38zM3,11H4V12H3zM4,11H5V12H4zM5,11H6V12H5zM7,11H8V12H7zM9,11H10V12H9zM10,11H11V12H10zM11,11H12V12H11zM13,11H14V12H13zM15,11H16V12H15zM16,11H17V12H16zM18,11H19V12H18zM19,11H20V12H19zM21,11H22V12H21zM22,11H23V12H22zM23,11H24V12H23zM29,11H30V12H29zM31,11H32V12H31zM33,11H34V12H33zM34,11H35V12H34zM35,11H36V12H35zM37,11H38V12H37zM2,12H3V13H2zM4,12H5V13H4zM5,12H6V13H5zM6,12H7V13H6zM8,12H9V13H8zM10,12H11V13H10zM12,12H13V13H12zM13,12H14V13H13zM14,12H15V13H14zM15,12H16V13H15zM16,12H17V13H16zM18,12H19V13H18zM20,12H21V13H20zM22,12H23V13H22zM27,12H28V13H27zM28,12H29V13H28zM29,12H30V13H29zM32,12H33V13H32zM33,12H34V13H33zM34,12H35V13H34zM36,12H37V13H36zM2,13H3V14H2zM3,13H4V14H3zM7,13H8V14H7zM9,13H10V14H9zM10,13H11V14H10zM12,13H13V14H12zM13,13H14V14H13zM16,13H17V14H16zM19,13H20V14H19zM20,13H21V14H20zM23,13H24V14H23zM26,13H27V14H26zM30,13H31V14H30zM31,13H32V14H31zM32,13H33V14H32zM33,13H34V14H33zM34,13H35V14H34zM36,13H37V14H36zM37,13H38V14H37zM3,14H4V15H3zM5,14H6V15H5zM7,14H8V15H7zM8,14H9V15H8zM9,14H10V15H9zM10,14H11V15H10zM11,14H12V15H11zM17,14H18V15H17zM18,14H19V15H18zM19,14H20V15H19zM21,14H22V15H21zM22,14H23V15H22zM23,14H24V15H23zM25,14H26V15H25zM26,14H27V15H26zM30,14H31V15H30zM31,14H32V15H31zM32,14H33V15H32zM33,14H34V15H33zM35,14H36V15H35zM36,14H37V15H36zM37,14H38V15H37zM38,14H39V15H38zM4,15H5V16H4zM5,15H6V16H5zM7,15H8V16H7zM13,15H14V16H13zM16,15H17V16H16zM17,15H18V16H17zM18,15H19V16H18zM19,15H20V16H19zM22,15H23V16H22zM25,15H26V16H25zM26,15H27V16H26zM27,15H28V16H27zM28,15H29V16H28zM29,15H30V16H29zM31,15H32V16H31zM34,15H35V16H34zM35,15H36V16H35zM2,16H3V17H2zM4,16H5V17H4zM5,16H6V17H5zM8,16H9V17H8zM10,16H11V17H10zM11,16H12V17H11zM17,16H18V17H17zM20,16H21V17H20zM22,16H23V17H22zM23,16H24V17H23zM24,16H25V17H24zM25,16H26V17H25zM28,16H29V17H28zM29,16H30V17H29zM30,16H31V17H30zM33,16H34V17H33zM34,16H35V17H34zM35,16H36V17H35zM36,16H37V17H36zM2,17H3V18H2zM3,17H4V18H3zM4,17H5V18H4zM7,17H8V18H7zM10,17H11V18H10zM11,17H12V18H11zM13,17H14V18H13zM14,17H15V18H14zM16,17H17V18H16zM17,17H18V18H17zM21,17H22V18H21zM23,17H24V18H23zM28,17H29V18H28zM31,17H32V18H31zM32,17H33V18H32zM33,17H34V18H33zM34,17H35V18H34zM36,17H37V18H36zM37,17H38V18H37zM2,18H3V19H2zM3,18H4V19H3zM4,18H5V19H4zM5,18H6V19H5zM8,18H9V19H8zM10,18H11V19H10zM11,18H12V19H11zM12,18H13V19H12zM15,18H16V19H15zM18,18H19V19H18zM21,18H22V19H21zM22,18H23V19H22zM31,18H32V19H31zM32,18H33V19H32zM33,18H34V19H33zM35,18H36V19H35zM36,18H37V19H36zM37,18H38V19H37zM2,19H3V20H2zM5,19H6V20H5zM9,19H10V20H9zM11,19H12V20H11zM13,19H14V20H13zM15,19H16V20H15zM20,19H21V20H20zM21,19H22V20H21zM23,19H24V20H23zM24,19H25V20H24zM26,19H27V20H26zM27,19H28V20H27zM28,19H29V20H28zM29,19H30V20H29zM30,19H31V20H30zM33,19H34V20H33zM34,19H35V20H34zM37,19H38V20H37zM4,20H5V21H4zM7,20H8V21H7zM8,20H9V21H8zM9,20H10V21H9zM17,20H18V21H17zM21,20H22V21H21zM25,20H26V21H25zM26,20H27V21H26zM27,20H28V21H27zM28,20H29V21H28zM29,20H30V21H29zM33,20H34V21H33zM34,20H35V21H34zM2,21H3V22H2zM3,21H4V22H3zM5,21H6V22H5zM6,21H7V22H6zM10,21H11V22H10zM11,21H12V22H11zM12,21H13V22H12zM14,21H15V22H14zM15,21H16V22H15zM17,21H18V22H17zM18,21H19V22H18zM19,21H20V22H19zM21,21H22V22H21zM22,21H23V22H22zM23,21H24V22H23zM25,21H26V22H25zM28,21H29V22H28zM29,21H30V22H29zM30,21H31V22H30zM36,21H37V22H36zM37,21H38V22H37zM2,22H3V23H2zM7,22H8V23H7zM8,22H9V23H8zM11,22H12V23H11zM13,22H14V23H13zM14,22H15V23H14zM15,22H16V23H15zM16,22H17V23H16zM19,22H20V23H19zM22,22H23V23H22zM23,22H24V23H23zM24,22H25V23H24zM26,22H27V23H26zM29,22H30V23H29zM30,22H31V23H30zM31,22H32V23H31zM32,22H33V23H32zM33,22H34V23H33zM35,22H36V23H35zM36,22H37V23H36zM2,23H3V24H2zM4,23H5V24H4zM7,23H8V24H7zM11,23H12V24H11zM13,23H14V24H13zM15,23H16V24H15zM17,23H18V24H17zM18,23H19V24H18zM20,23H21V24H20zM23,23H24V24H23zM25,23H26V24H25zM28,23H29V24H28zM29,23H30V24H29zM33,23H34V24H33zM34,23H35V24H34zM3,24H4V25H3zM4,24H5V25H4zM5,24H6V25H5zM7,24H8V25H7zM8,24H9V25H8zM9,24H10V25H9zM10,24H11V25H10zM11,24H12V25H11zM15,24H16V25H15zM16,24H17V25H16zM17,24H18V25H17zM19,24H20V25H19zM22,24H23V25H22zM25,24H26V25H25zM26,24H27V25H26zM29,24H30V25H29zM30,24H31V25H30zM32,24H33V25H32zM33,24H34V25H33zM34,24H35V25H34zM35,24H36V25H35zM36,24H37V25H36zM4,25H5V26H4zM6,25H7V26H6zM7,25H8V26H7zM10,25H11V26H10zM12,25H13V26H12zM14,25H15V26H14zM17,25H18V26H17zM19,25H20V26H19zM20,25H21V26H20zM24,25H25V26H24zM25,25H26V26H25zM26,25H27V26H26zM28,25H29V26H28zM29,25H30V26H29zM33,25H34V26H33zM34,25H35V26H34zM36,25H37V26H36zM38,25H39V26H38zM3,26H4V27H3zM4,26H5V27H4zM5,26H6V27H5zM8,26H9V27H8zM9,26H10V27H9zM10,26H11V27H10zM12,26H13V27H12zM13,26H14V27H13zM14,26H15V27H14zM15,26H16V27H15zM16,26H17V27H16zM20,26H21V27H20zM24,26H25V27H24zM26,26H27V27H26zM31,26H32V27H31zM32,26H33V27H32zM35,26H36V27H35zM36,26H37V27H36zM37,26H38V27H37zM2,27H3V28H2zM3,27H4V28H3zM6,27H7V28H6zM7,27H8V28H7zM13,27H14V28H13zM15,27H16V28H15zM18,27H19V28H18zM19,27H20V28H19zM21,27H22V28H21zM22,27H23V28H22zM23,27H24V28H23zM29,27H30V28H29zM30,27H31V28H30zM31,27H32V28H31zM34,27H35V28H34zM4,28H5V29H4zM8,28H9V29H8zM9,28H10V29H9zM10,28H11V29H10zM11,28H12V29H11zM14,28H15V29H14zM15,28H16V29H15zM18,28H19V29H18zM22,28H23V29H22zM23,28H24V29H23zM29,28H30V29H29zM32,28H33V29H32zM34,28H35V29H34zM4,29H5V30H4zM5,29H6V30H5zM6,29H7V30H6zM11,29H12V30H11zM12,29H13V30H12zM15,29H16V30H15zM19,29H20V30H19zM20,29H21V30H20zM23,29H24V30H23zM26,29H27V30H26zM28,29H29V30H28zM30,29H31V30H30zM31,29H32V30H31zM32,29H33V30H32zM33,29H34V30H33zM34,29H35V30H34zM36,29H37V30H36zM38,29H39V30H38zM2,30H3V31H2zM3,30H4V31H3zM4,30H5V31H4zM5,30H6V31H5zM8,30H9V31H8zM9,30H10V31H9zM10,30H11V31H10zM11,30H12V31H11zM13,30H14V31H13zM16,30H17V31H16zM17,30H18V31H17zM19,30H20V31H19zM21,30H22V31H21zM22,30H23V31H22zM23,30H24V31H23zM24,30H25V31H24zM25,30H26V31H25zM30,30H31V31H30zM31,30H32V31H31zM32,30H33V31H32zM33,30H34V31H33zM34,30H35V31H34zM36,30H37V31H36zM37,30H38V31H37zM10,31H11V32H10zM12,31H13V32H12zM17,31H18V32H17zM18,31H19V32H18zM19,31H20V32H19zM24,31H25V32H24zM25,31H26V32H25zM29,31H30V32H29zM30,31H31V32H30zM34,31H35V32H34zM2,32H3V33H2zM3,32H4V33H3zM4,32H5V33H4zM5,32H6V33H5zM6,32H7V33H6zM7,32H8V33H7zM8,32H9V33H8zM10,32H11V33H10zM11,32H12V33H11zM13,32H14V33H13zM17,32H18V33H17zM18,32H19V33H18zM20,32H21V33H20zM22,32H23V33H22zM23,32H24V33H23zM24,32H25V33H24zM25,32H26V33H25zM27,32H28V33H27zM30,32H31V33H30zM32,32H33V33H32zM34,32H35V33H34zM37,32H38V33H37zM2,33H3V34H2zM8,33H9V34H8zM11,33H12V34H11zM13,33H14V34H13zM14,33H15V34H14zM16,33H17V34H16zM17,33H18V34H17zM18,33H19V34H18zM21,33H22V34H21zM23,33H24V34H23zM25,33H26V34H25zM29,33H30V34H29zM30,33H31V34H30zM34,33H35V34H34zM35,33H36V34H35zM36,33H37V34H36zM37,33H38V34H37zM2,34H3V35H2zM4,34H5V35H4zM5,34H6V35H5zM6,34H7V35H6zM8,34H9V35H8zM10,34H11V35H10zM11,34H12V35H11zM14,34H15V35H14zM16,34H17V35H16zM17,34H18V35H17zM18,34H19V35H18zM21,34H22V35H21zM22,34H23V35H22zM25,34H26V35H25zM26,34H27V35H26zM28,34H29V35H28zM30,34H31V35H30zM31,34H32V35H31zM32,34H33V35H32zM33,34H34V35H33zM34,34H35V35H34zM35,34H36V35H35zM36,34H37V35H36zM37,34H38V35H37zM38,34H39V35H38zM2,35H3V36H2zM4,35H5V36H4zM5,35H6V36H5zM6,35H7V36H6zM8,35H9V36H8zM11,35H12V36H11zM12,35H13V36H12zM13,35H14V36H13zM16,35H17V36H16zM20,35H21V36H20zM21,35H22V36H21zM24,35H25V36H24zM26,35H27V36H26zM27,35H28V36H27zM28,35H29V36H28zM29,35H30V36H29zM30,35H31V36H30zM31,35H32V36H31zM32,35H33V36H32zM33,35H34V36H33zM35,35H36V36H35zM36,35H37V36H36zM37,35H38V36H37zM2,36H3V37H2zM4,36H5V37H4zM5,36H6V37H5zM6,36H7V37H6zM8,36H9V37H8zM11,36H12V37H11zM17,36H18V37H17zM21,36H22V37H21zM23,36H24V37H23zM25,36H26V37H25zM26,36H27V37H26zM28,36H29V37H28zM31,36H32V37H31zM32,36H33V37H32zM37,36H38V37H37zM2,37H3V38H2zM8,37H9V38H8zM14,37H15V38H14zM15,37H16V38H15zM17,37H18V38H17zM18,37H19V38H18zM19,37H20V38H19zM20,37H21V38H20zM21,37H22V38H21zM22,37H23V38H22zM23,37H24V38H23zM26,37H27V38H26zM34,37H35V38H34zM36,37H37V38H36zM37,37H38V38H37zM2,38H3V39H2zM3,38H4V39H3zM4,38H5V39H4zM5,38H6V39H5zM6,38H7V39H6zM7,38H8V39H7zM8,38H9V39H8zM10,38H11V39H10zM11,38H12V39H11zM13,38H14V39H13zM15,38H16V39H15zM16,38H17V39H16zM19,38H20V39H19zM23,38H24V39H23zM24,38H25V39H24zM25,38H26V39H25zM26,38H27V39H26zM29,38H30V39H29zM31,38H32V39H31zM32,38H33V39H32zM33,38H34V39H33zM36,38H37V39H36zM37,38H38V39H37zM38,38H39V39H38z" id="qr-path" fill="#000000" fill-opacity="1" fill-rule="nonzero" stroke="none" /></svg>