<svg width="49mm" height="49mm" version="1.1" viewBox="0 0 49 49" xmlns="http://www.w3.org/2000/svg"><path d="M2,2H3V3H2zM3,2H4V3H3zM4,2H5V3H4zM5,2H6V3H5zM6,2H7V3H6zM7,2H8V3H7zM8,2H9V3H8zM10,2H11V3H10zM11,2H12V3H11zM12,2H13V3H12zM13,2H14V3H13zM15,2H16V3H15zM16,2H17V3H16zM17,2H18V3H17zM18,2H19V3H18zM19,2H20V3H19zM22,2H23V3H22zM24,2H25V3H24zM28,2H29V3H28zM29,2H30V3H29zM32,2H33V3H32zM33,2H34V3H33zM35,2H36V3H35zM38,2H39V3H38zM40,2H41V3H40zM41,2H42V3H41zM42,2H43V3H42zM43,2H44V3H43zM44,2H45V3H44zM45,2H46V3H45zM46,2H47V3H46zM2,3H3V4H2zM8,3H9V4H8zM12,3H13V4H12zM13,3H14V4H13zM22,3H23V4H22zM24,3H25V4H24zM25,3H26V4H25zM26,3H27V4H26zM29,3H30V4H29zM30,3H31V4H30zM31,3H32V4H31zM34,3H35V4H34zM37,3H38V4H37zM40,3H41V4H40zM46,3H47V4H46zM2,4H3V5H2zM4,4H5V5H4zM5,4H6V5H5zM6,4H7V5H6zM8,4H9V5H8zM12,4H13V5H12zM13,4H14V5H13zM15,4H16V5H15zM16,4H17V5H16zM17,4H18V5H17zM20,4H21V5H20zM21,4H22V5H21zM22,4H23V5H22zM25,4H26V5H25zM26,4H27V5H26zM27,4H28V5H27zM29,4H30V5H29zM34,4H35V5H34zM35,4H36V5H35zM37,4H38V5H37zM40,4H41V5H40zM42,4H43V5H42zM43,4H44V5H43zM44,4H45V5H44zM46,4H47V5H46zM2,5H3V6H2zM4,5H5V6H4zM5,5H6V6H5zM6,5H7V6H6zM8,5H9V6H8zM10,5H11V6H10zM12,5H13V6H12zM15,5H16V6H15zM16,5H17V6H16zM19,5H20V6H19zM20,5H21V6H20zM21,5H22V6H21zM22,5H23V6H22zM24,5H25V6H24zM26,5H27V6H26zM27,5H28V6H27zM29,5H30V6H29zM30,5H31V6H30zM34,5H35V6H34zM37,5H38V6H37zM38,5H39V6H38zM40,5H41V6H40zM42,5H43V6H42zM43,5H44V6H43zM44,5H45V6H44zM46,5H47V6H46zM2,6H3V7H2zM4,6H5V7H4zM5,6H6V7H5zM6,6H7V7H6zM8,6H9V7H8zM10,6H11V7H10zM12,6H13V7H12zM13,6H14V7H13zM14,6H15V7H14zM16,6H17V7H16zM17,6H18V7H17zM18,6H19V7H18zM20,6H21V7H20zM22,6H23V7H22zM23,6H24V7H23zM24,6H25V7H24zM25,6H26V7H25zM26,6H27V7H26zM29,6H30V7H29zM30,6H31V7H30zM31,6H32V7H31zM32,6H33V7H32zM34,6H35V7H34zM35,6H36V7H35zM36,6H37V7H36zM37,6H38V7H37zM38,6H39V7H38zM40,6H41V7H40zM42,6H43V7H42zM43,6H44V7H43zM44,6H45V7H44zM46,6H47V7H46zM2,7H3V8H2zM8,7H9V8H8zM10,7H11V8H10zM11,7H12V8H11zM12,7H13V8H12zM14,7H15V8H14zM15,7H16V8H15zM18,7H19V8H18zM20,7H21V8H20zM21,7H22V8H21zM22,7H23V8H22zM26,7H27V8H26zM27,7H28V8H27zM28,7H29V8H28zM31,7H32V8H31zM40,7H41V8H40zM46,7H47V8H46zM2,8H3V9H2zM3,8H4V9H3zM4,8H5V9H4zM5,8H6V9H5zM6,8H7V9H6zM7,8H8V9H7zM8,8H9V9H8zM10,8H11V9H10zM12,8H13V9H12zM14,8H15V9H14zM16,8H17V9H16zM18,8H19V9H18zM20,8H21V9H20zM22,8H23V9H22zM24,8H25V9H24zM26,8H27V9H26zM28,8H29V9H28zM30,8H31V9H30zM32,8H33V9H32zM34,8H35V9H34zM36,8H37V9H36zM38,8H39V9H38zM40,8H41V9H40zM41,8H42V9H41zM42,8H43V9H42zM43,8H44V9H43zM44,8H45V9H44zM45,8H46V9H45zM46,8H47V9H46zM10,9H11V10H10zM13,9H14V10H13zM14,9H15V10H14zM21,9H22V10H21zM22,9H23V10H22zM26,9H27V10H26zM27,9H28V10H27zM31,9H32V10H31zM33,9H34V10H33zM34,9H35V10H34zM37,9H38V10H37zM38,9H39V10H38zM2,10H3V11H2zM6,10H7V11H6zM8,10H9V11H8zM9,10H10V11H9zM10,10H11V11H10zM11,10H12V11H11zM12,10H13V11H12zM13,10H14V11H13zM16,10H17V11H16zM17,10H18V11H17zM18,10H19V11H18zM20,10H21V11H20zM21,10H22V11H21zM22,10H23V11H22zM23,10H24V11H23zM24,10H25V11H24zM25,10H26V11H25zM26,10H27V11H26zM27,10H28V11H27zM28,10H29V11H28zM29,10H30V11H29zM31,10H32V11H31zM33,10H34V11H33zM34,10H35V11H34zM36,10H37V11H36zM37,10H38V11H37zM38,10H39V11H38zM39,10H40V11H39zM40,10H41V11H40zM41,10H42V11H41zM42,10H43V11H42zM43,10H44V11H43zM46,10H47V11H46zM2,11H3V12H2zM3,11H4V12H3zM6,11H7V12H6zM7,11H8V12H7zM9,11H10V12H9zM10,11H11V12H10zM12,11H13V12H12zM16,11H17V12H16zM17,11H18V12H17zM19,11H20V12H19zM20,11H21V12H20zM23,11H24V12H23zM24,11H25V12H24zM26,11H27V12H26zM28,11H29V12H28zM29,11H30V12H29zM31,11H32V12H31zM32,11H33V12H32zM33,11H34V12H33zM35,11H36V12H35zM37,11H38V12H37zM39,11H40V12H39zM40,11H41V12H40zM41,11H42V12H41zM42,11H43V12H42zM44,11H45V12H44zM2,12H3V13H2zM4,12H5V13H4zM6,12H7V13H6zM7,12H8V13H7zM8,12H9V13H8zM11,12H12V13H11zM12,12H13V13H12zM14,12H15V13H14zM17,12H18V13H17zM18,12H19V13H18zM23,12H24V13H23zM24,12H25V13H24zM25,12H26V13H25zM26,12H27V13H26zM28,12H29V13H28zM29,12H30V13H29zM37,12H38V13H37zM39,12H40V13H39zM40,12H41V13H40zM41,12H42V13H41zM42,12H43V13H42zM44,12H45V13H44zM45,12H46V13H45zM2,13H3V14H2zM3,13H4V14H3zM6,13H7V14H6zM9,13H10V14H9zM12,13H13V14H12zM13,13H14V14H13zM16,13H17V14H16zM18,13H19V14H18zM21,13H22V14H21zM22,13H23V14H22zM24,13H25V14H24zM29,13H30V14H29zM30,13H31V14H30zM32,13H33V14H32zM34,13H35V14H34zM36,13H37V14H36zM42,13H43V14H42zM43,13H44V14H43zM2,14H3V15H2zM3,14H4V15H3zM4,14H5V15H4zM6,14H7V15H6zM7,14H8V15H7zM8,14H9V15H8zM16,14H17V15H16zM19,14H20V15H19zM20,14H21V15H20zM21,14H22V15H21zM25,14H26V15H25zM27,14H28V15H27zM29,14H30V15H29zM30,14H31V15H30zM31,14H32V15H31zM32,14H33V15H32zM34,14H35V15H34zM35,14H36V15H35zM39,14H40V15H39zM41,14H42V15H41zM42,14H43V15H42zM45,14H46V15H45zM2,15H3V16H2zM3,15H4V16H3zM5,15H6V16H5zM7,15H8V16H7zM9,15H10V16H9zM11,15H12V16H11zM12,15H13V16H12zM13,15H14V16H13zM14,15H15V16H14zM15,15H16V16H15zM19,15H20V16H19zM25,15H26V16H25zM28,15H29V16H28zM29,15H30V16H29zM31,15H32V16H31zM33,15H34V16H33zM34,15H35V16H34zM35,15H36V16H35zM37,15H38V16H37zM38,15H39V16H38zM40,15H41V16H40zM41,15H42V16H41zM43,15H44V16H43zM44,15H45V16H44zM45,15H46V16H45zM2,16H3V17H2zM3,16H4V17H3zM4,16H5V17H4zM8,16H9V17H8zM12,16H13V17H12zM14,16H15V17H14zM19,16H20V17H19zM20,16H21V17H20zM21,16H22V17H21zM23,16H24V17H23zM24,16H25V17H24zM25,16H26V17H25zM26,16H27V17H26zM28,16H29V17H28zM31,16H32V17H31zM32,16H33V17H32zM33,16H34V17H33zM34,16H35V17H34zM35,16H36V17H35zM37,16H38V17H37zM40,16H41V17H40zM42,16H43V17H42zM43,16H44V17H43zM44,16H45V17H44zM46,16H47V17H46zM2,17H3V18H2zM5,17H6V18H5zM9,17H10V18H9zM11,17H12V18H11zM12,17H13V18H12zM16,17H17V18H16zM18,17H19V18H18zM19,17H20V18H19zM21,17H22V18H21zM23,17H24V18H23zM24,17H25V18H24zM25,17H26V18H25zM26,17H27V18H26zM30,17H31V18H30zM31,17H32V18H31zM33,17H34V18H33zM34,17H35V18H34zM37,17H38V18H37zM38,17H39V18H38zM39,17H40V18H39zM42,17H43V18H42zM43,17H44V18H43zM44,17H45V18H44zM45,17H46V18H45zM46,17H47V18H46zM4,18H5V19H4zM6,18H7V19H6zM8,18H9V19H8zM9,18H10V19H9zM11,18H12V19H11zM14,18H15V19H14zM16,18H17V19H16zM18,18H19V19H18zM25,18H26V19H25zM27,18H28V19H27zM28,18H29V19H28zM33,18H34V19H33zM34,18H35V19H34zM36,18H37V19H36zM40,18H41V19H40zM41,18H42V19H41zM42,18H43V19H42zM43,18H44V19H43zM46,18H47V19H46zM3,19H4V20H3zM6,19H7V20H6zM7,19H8V20H7zM9,19H10V20H9zM12,19H13V20H12zM15,19H16V20H15zM16,19H17V20H16zM17,19H18V20H17zM18,19H19V20H18zM19,19H20V20H19zM20,19H21V20H20zM21,19H22V20H21zM24,19H25V20H24zM25,19H26V20H25zM26,19H27V20H26zM27,19H28V20H27zM32,19H33V20H32zM33,19H34V20H33zM34,19H35V20H34zM35,19H36V20H35zM37,19H38V20H37zM38,19H39V20H38zM40,19H41V20H40zM42,19H43V20H42zM43,19H44V20H43zM46,19H47V20H46zM2,20H3V21H2zM4,20H5V21H4zM5,20H6V21H5zM8,20H9V21H8zM9,20H10V21H9zM12,20H13V21H12zM15,20H16V21H15zM16,20H17V21H16zM18,20H19V21H18zM20,20H21V21H20zM24,20H25V21H24zM27,20H28V21H27zM29,20H30V21H29zM32,20H33V21H32zM33,20H34V21H33zM36,20H37V21H36zM38,20H39V21H38zM45,20H46V21H45zM46,20H47V21H46zM3,21H4V22H3zM5,21H6V22H5zM6,21H7V22H6zM7,21H8V22H7zM9,21H10V22H9zM12,21H13V22H12zM13,21H14V22H13zM14,21H15V22H14zM17,21H18V22H17zM21,21H22V22H21zM24,21H25V22H24zM25,21H26V22H25zM27,21H28V22H27zM28,21H29V22H28zM31,21H32V22H31zM34,21H35V22H34zM35,21H36V22H35zM38,21H39V22H38zM39,21H40V22H39zM43,21H44V22H43zM44,21H45V22H44zM2,22H3V23H2zM5,22H6V23H5zM6,22H7V23H6zM7,22H8V23H7zM8,22H9V23H8zM9,22H10V23H9zM10,22H11V23H10zM13,22H14V23H13zM14,22H15V23H14zM15,22H16V23H15zM16,22H17V23H16zM22,22H23V23H22zM23,22H24V23H23zM24,22H25V23H24zM25,22H26V23H25zM26,22H27V23H26zM28,22H29V23H28zM29,22H30V23H29zM31,22H32V23H31zM34,22H35V23H34zM35,22H36V23H35zM36,22H37V23H36zM37,22H38V23H37zM38,22H39V23H38zM39,22H40V23H39zM40,22H41V23H40zM41,22H42V23H41zM42,22H43V23H42zM44,22H45V23H44zM6,23H7V24H6zM10,23H11V24H10zM11,23H12V24H11zM12,23H13V24H12zM14,23H15V24H14zM18,23H19V24H18zM22,23H23V24H22zM26,23H27V24H26zM27,23H28V24H27zM28,23H29V24H28zM30,23H31V24H30zM31,23H32V24H31zM32,23H33V24H32zM34,23H35V24H34zM36,23H37V24H36zM37,23H38V24H37zM38,23H39V24H38zM42,23H43V24H42zM43,23H44V24H43zM44,23H45V24H44zM45,23H46V24H45zM2,24H3V25H2zM3,24H4V25H3zM4,24H5V25H4zM5,24H6V25H5zM6,24H7V25H6zM8,24H9V25H8zM10,24H11V25H10zM15,24H16V25H15zM17,24H18V25H17zM18,24H19V25H18zM20,24H21V25H20zM21,24H22V25H21zM22,24H23V25H22zM24,24H25V25H24zM26,24H27V25H26zM32,24H33V25H32zM35,24H36V25H35zM36,24H37V25H36zM38,24H39V25H38zM40,24H41V25H40zM42,24H43V25H42zM43,24H44V25H43zM45,24H46V25H45zM4,25H5V26H4zM5,25H6V26H5zM6,25H7V26H6zM10,25H11V26H10zM12,25H13V26H12zM13,25H14V26H13zM14,25H15V26H14zM15,25H16V26H15zM16,25H17V26H16zM19,25H20V26H19zM20,25H21V26H20zM22,25H23V26H22zM26,25H27V26H26zM28,25H29V26H28zM29,25H30V26H29zM31,25H32V26H31zM32,25H33V26H32zM36,25H37V26H36zM38,25H39V26H38zM42,25H43V26H42zM45,25H46V26H45zM4,26H5V27H4zM5,26H6V27H5zM6,26H7V27H6zM7,26H8V27H7zM8,26H9V27H8zM9,26H10V27H9zM10,26H11V27H10zM17,26H18V27H17zM18,26H19V27H18zM19,26H20V27H19zM21,26H22V27H21zM22,26H23V27H22zM23,26H24V27H23zM24,26H25V27H24zM25,26H26V27H25zM26,26H27V27H26zM27,26H28V27H27zM28,26H29V27H28zM29,26H30V27H29zM34,26H35V27H34zM35,26H36V27H35zM38,26H39V27H38zM39,26H40V27H39zM40,26H41V27H40zM41,26H42V27H41zM42,26H43V27H42zM43,26H44V27H43zM45,26H46V27H45zM2,27H3V28H2zM4,27H5V28H4zM5,27H6V28H5zM6,27H7V28H6zM7,27H8V28H7zM9,27H10V28H9zM10,27H11V28H10zM11,27H12V28H11zM12,27H13V28H12zM14,27H15V28H14zM15,27H16V28H15zM20,27H21V28H20zM24,27H25V28H24zM26,27H27V28H26zM28,27H29V28H28zM29,27H30V28H29zM30,27H31V28H30zM31,27H32V28H31zM33,27H34V28H33zM35,27H36V28H35zM38,27H39V28H38zM41,27H42V28H41zM43,27H44V28H43zM45,27H46V28H45zM2,28H3V29H2zM7,28H8V29H7zM8,28H9V29H8zM10,28H11V29H10zM13,28H14V29H13zM16,28H17V29H16zM18,28H19V29H18zM22,28H23V29H22zM25,28H26V29H25zM26,28H27V29H26zM27,28H28V29H27zM28,28H29V29H28zM30,28H31V29H30zM35,28H36V29H35zM37,28H38V29H37zM38,28H39V29H38zM40,28H41V29H40zM45,28H46V29H45zM2,29H3V30H2zM4,29H5V30H4zM5,29H6V30H5zM6,29H7V30H6zM7,29H8V30H7zM9,29H10V30H9zM11,29H12V30H11zM16,29H17V30H16zM17,29H18V30H17zM18,29H19V30H18zM20,29H21V30H20zM21,29H22V30H21zM22,29H23V30H22zM24,29H25V30H24zM25,29H26V30H25zM27,29H28V30H27zM29,29H30V30H29zM30,29H31V30H30zM32,29H33V30H32zM34,29H35V30H34zM36,29H37V30H36zM38,29H39V30H38zM46,29H47V30H46zM2,30H3V31H2zM3,30H4V31H3zM6,30H7V31H6zM7,30H8V31H7zM8,30H9V31H8zM10,30H11V31H10zM11,30H12V31H11zM19,30H20V31H19zM29,30H30V31H29zM32,30H33V31H32zM34,30H35V31H34zM35,30H36V31H35zM39,30H40V31H39zM41,30H42V31H41zM42,30H43V31H42zM43,30H44V31H43zM45,30H46V31H45zM46,30H47V31H46zM2,31H3V32H2zM4,31H5V32H4zM5,31H6V32H5zM6,31H7V32H6zM7,31H8V32H7zM10,31H11V32H10zM14,31H15V32H14zM15,31H16V32H15zM17,31H18V32H17zM20,31H21V32H20zM21,31H22V32H21zM22,31H23V32H22zM23,31H24V32H23zM24,31H25V32H24zM26,31H27V32H26zM27,31H28V32H27zM30,31H31V32H30zM35,31H36V32H35zM37,31H38V32H37zM38,31H39V32H38zM39,31H40V32H39zM41,31H42V32H41zM43,31H44V32H43zM44,31H45V32H44zM45,31H46V32H45zM46,31H47V32H46zM4,32H5V33H4zM5,32H6V33H5zM6,32H7V33H6zM7,32H8V33H7zM8,32H9V33H8zM9,32H10V33H9zM18,32H19V33H18zM20,32H21V33H20zM22,32H23V33H22zM25,32H26V33H25zM26,32H27V33H26zM27,32H28V33H27zM28,32H29V33H28zM31,32H32V33H31zM33,32H34V33H33zM34,32H35V33H34zM41,32H42V33H41zM42,32H43V33H42zM43,32H44V33H43zM44,32H45V33H44zM2,33H3V34H2zM3,33H4V34H3zM4,33H5V34H4zM6,33H7V34H6zM10,33H11V34H10zM13,33H14V34H13zM15,33H16V34H15zM18,33H19V34H18zM20,33H21V34H20zM24,33H25V34H24zM25,33H26V34H25zM26,33H27V34H26zM29,33H30V34H29zM31,33H32V34H31zM33,33H34V34H33zM34,33H35V34H34zM38,33H39V34H38zM40,33H41V34H40zM41,33H42V34H41zM42,33H43V34H42zM43,33H44V34H43zM45,33H46V34H45zM2,34H3V35H2zM5,34H6V35H5zM7,34H8V35H7zM8,34H9V35H8zM9,34H10V35H9zM12,34H13V35H12zM14,34H15V35H14zM15,34H16V35H15zM17,34H18V35H17zM18,34H19V35H18zM20,34H21V35H20zM21,34H22V35H21zM23,34H24V35H23zM24,34H25V35H24zM25,34H26V35H25zM26,34H27V35H26zM27,34H28V35H27zM28,34H29V35H28zM30,34H31V35H30zM31,34H32V35H31zM33,34H34V35H33zM34,34H35V35H34zM35,34H36V35H35zM39,34H40V35H39zM41,34H42V35H41zM43,34H44V35H43zM44,34H45V35H44zM46,34H47V35H46zM2,35H3V36H2zM4,35H5V36H4zM5,35H6V36H5zM6,35H7V36H6zM7,35H8V36H7zM11,35H12V36H11zM15,35H16V36H15zM17,35H18V36H17zM18,35H19V36H18zM24,35H25V36H24zM25,35H26V36H25zM27,35H28V36H27zM29,35H30V36H29zM30,35H31V36H30zM32,35H33V36H32zM37,35H38V36H37zM38,35H39V36H38zM42,35H43V36H42zM43,35H44V36H43zM44,35H45V36H44zM45,35H46V36H45zM46,35H47V36H46zM6,36H7V37H6zM8,36H9V37H8zM11,36H12V37H11zM12,36H13V37H12zM13,36H14V37H13zM14,36H15V37H14zM18,36H19V37H18zM26,36H27V37H26zM29,36H30V37H29zM30,36H31V37H30zM31,36H32V37H31zM32,36H33V37H32zM33,36H34V37H33zM34,36H35V37H34zM37,36H38V37H37zM39,36H40V37H39zM42,36H43V37H42zM46,36H47V37H46zM3,37H4V38H3zM4,37H5V38H4zM5,37H6V38H5zM6,37H7V38H6zM9,37H10V38H9zM11,37H12V38H11zM14,37H15V38H14zM15,37H16V38H15zM18,37H19V38H18zM21,37H22V38H21zM22,37H23V38H22zM23,37H24V38H23zM25,37H26V38H25zM26,37H27V38H26zM27,37H28V38H27zM28,37H29V38H28zM29,37H30V38H29zM31,37H32V38H31zM36,37H37V38H36zM39,37H40V38H39zM40,37H41V38H40zM41,37H42V38H41zM2,38H3V39H2zM5,38H6V39H5zM6,38H7V39H6zM8,38H9V39H8zM9,38H10V39H9zM11,38H12V39H11zM12,38H13V39H12zM17,38H18V39H17zM21,38H22V39H21zM22,38H23V39H22zM23,38H24V39H23zM24,38H25V39H24zM25,38H26V39H25zM26,38H27V39H26zM27,38H28V39H27zM29,38H30V39H29zM31,38H32V39H31zM33,38H34V39H33zM38,38H39V39H38zM39,38H40V39H39zM40,38H41V39H40zM41,38H42V39H41zM42,38H43V39H42zM45,38H46V39H45zM46,38H47V39H46zM10,39H11V40H10zM11,39H12V40H11zM14,39H15V40H14zM15,39H16V40H15zM16,39H17V40H16zM18,39H19V40H18zM19,39H20V40H19zM20,39H21V40H20zM22,39H23V40H22zM26,39H27V40H26zM27,39H28V40H27zM29,39H30V40H29zM30,39H31V40H30zM31,39H32V40H31zM32,39H33V40H32zM33,39H34V40H33zM36,39H37V40H36zM37,39H38V40H37zM38,39H39V40H38zM42,39H43V40H42zM43,39H44V40H43zM44,39H45V40H44zM45,39H46V40H45zM2,40H3V41H2zM3,40H4V41H3zM4,40H5V41H4zM5,40H6V41H5zM6,40H7V41H6zM7,40H8V41H7zM8,40H9V41H8zM10,40H11V41H10zM11,40H12V41H11zM13,40H14V41H13zM15,40H16V41H15zM18,40H19V41H18zM22,40H23V41H22zM24,40H25V41H24zM26,40H27V41H26zM31,40H32V41H31zM32,40H33V41H32zM33,40H34V41H33zM34,40H35V41H34zM35,40H36V41H35zM36,40H37V41H36zM38,40H39V41H38zM40,40H41V41H40zM42,40H43V41H42zM43,40H44V41H43zM45,40H46V41H45zM2,41H3V42H2zM8,41H9V42H8zM13,41H14V42H13zM14,41H15V42H14zM19,41H20V42H19zM22,41H23V42H22zM26,41H27V42H26zM27,41H28V42H27zM29,41H30V42H29zM31,41H32V42H31zM32,41H33V42H32zM34,41H35V42H34zM38,41H39V42H38zM42,41H43V42H42zM45,41H46V42H45zM46,41H47V42H46zM2,42H3V43H2zM4,42H5V43H4zM5,42H6V43H5zM6,42H7V43H6zM8,42H9V43H8zM10,42H11V43H10zM11,42H12V43H11zM12,42H13V43H12zM13,42H14V43H13zM14,42H15V43H14zM15,42H16V43H15zM16,42H17V43H16zM19,42H20V43H19zM20,42H21V43H20zM22,42H23V43H22zM23,42H24V43H23zM24,42H25V43H24zM25,42H26V43H25zM26,42H27V43H26zM28,42H29V43H28zM29,42H30V43H29zM32,42H33V43H32zM36,42H37V43H36zM37,42H38V43H37zM38,42H39V43H38zM39,42H40V43H39zM40,42H41V43H40zM41,42H42V43H41zM42,42H43V43H42zM43,42H44V43H43zM45,42H46V43H45zM46,42H47V43H46zM2,43H3V44H2zM4,43H5V44H4zM5,43H6V44H5zM6,43H7V44H6zM8,43H9V44H8zM11,43H12V44H11zM12,43H13V44H12zM13,43H14V44H13zM16,43H17V44H16zM18,43H19V44H18zM23,43H24V44H23zM24,43H25V44H24zM25,43H26V44H25zM28,43H29V44H28zM30,43H31V44H30zM34,43H35V44H34zM35,43H36V44H35zM39,43H40V44H39zM40,43H41V44H40zM41,43H42V44H41zM43,43H44V44H43zM44,43H45V44H44zM2,44H3V45H2zM4,44H5V45H4zM5,44H6V45H5zM6,44H7V45H6zM8,44H9V45H8zM11,44H12V45H11zM12,44H13V45H12zM14,44H15V45H14zM15,44H16V45H15zM17,44H18V45H17zM19,44H20V45H19zM20,44H21V45H20zM21,44H22V45H21zM23,44H24V45H23zM24,44H25V45H24zM26,44H27V45H26zM28,44H29V45H28zM31,44H32V45H31zM33,44H34V45H33zM35,44H36V45H35zM37,44H38V45H37zM38,44H39V45H38zM39,44H40V45H39zM44,44H45V45H44zM2,45H3V46H2zM8,45H9V46H8zM12,45H13V46H12zM13,45H14V46H13zM18,45H19V46H18zM22,45H23V46H22zM27,45H28V46H27zM29,45H30V46H29zM32,45H33V46H32zM34,45H35V46H34zM36,45H37V46H36zM38,45H39V46H38zM39,45H40V46H39zM41,45H42V46H41zM42,45H43V46H42zM2,46H3V47H2zM3,46H4V47H3zM4,46H5V47H4zM5,46H6V47H5zM6,46H7V47H6zM7,46H8V47H7zM8,46H9V47H8zM10,46H11V47H10zM11,46H12V47H11zM12,46H13V47H12zM15,46H16V47H15zM16,46H17V47H16zM18,46H19V47H18zM19,46H20V47H19zM21,46H22V47H21zM22,46H23V47H22zM23,46H24V47H23zM24,46H25V47H24zM25,46H26V47H25zM26,46H27V47H26zM28,46H29V47H28zM30,46H31V47H30zM32,46H33V47H32zM33,46H34V47H33zM34,46H35V47H34zM37,46H38V47H37zM38,46H39V47H38zM39,46H40V47H39zM41,46H42V47H41zM42,46H43V47H42zM46,46H47V47H46z" id="qr-path" fill="#000000" fill-opacity="1" fill-rule="nonzero" stroke="none" /></svg>